<?xml version="1.0" encoding="utf-8"?>

<!-- License Agreement at http://iconmonstr.com/license/ -->

<!DOCTYPE svg PUBLIC "-//W3C//DTD SVG 1.1//EN" "http://www.w3.org/Graphics/SVG/1.1/DTD/svg11.dtd">
<svg version="1.1" xmlns="http://www.w3.org/2000/svg" xmlns:xlink="http://www.w3.org/1999/xlink" x="0px" y="0px"
	 width="24px" height="24px" viewBox="0 0 512 512" enable-background="new 0 0 512 512" xml:space="preserve">
<path class="state0" id="note-19-icon" d="M196.231,296.612h-72.128v-27.31h72.128V296.612z M462,115.856L315.839,261.945l-60.76-60.726
	L401.241,55.128L462,115.856z M348.278,274.426c0,17.83,0,31.954,0,38.671c0,58.959-72.79,35.338-72.79,35.338
	s22.287,71.074-32.691,71.074c-29.948,0-44.896,0-155.434,0V109.4h214.654l37.381-37.362H50v384.834h193.366
	c63.67,0,142.274-83.196,142.274-140.55v-79.241L348.278,274.426z M238.413,219.604l58.966,58.932l-78.021,17.661L238.413,219.604z"
	/>
	<style type="text/css">
		.state0{fill:#BBBBBB;}
	</style>
</svg>
