<?xml version="1.0" encoding="utf-8"?>

<!-- License Agreement at http://iconmonstr.com/license/ -->

<!DOCTYPE svg PUBLIC "-//W3C//DTD SVG 1.1//EN" "http://www.w3.org/Graphics/SVG/1.1/DTD/svg11.dtd">
<svg version="1.1" xmlns="http://www.w3.org/2000/svg" xmlns:xlink="http://www.w3.org/1999/xlink" x="0px" y="0px"
	 width="24px" height="24px" viewBox="0 0 512 512" enable-background="new 0 0 512 512" xml:space="preserve">
<path class="state0" id="note-29-icon" d="M344.319,319.785H167.238v-26.612h177.081V319.785z M344.319,261.831H167.238v-26.612h177.081V261.831
	z M340.371,50c-30.461,0-55.156,24.695-55.156,55.157c0,12.078,3.894,23.241,10.479,32.326l-60.596,60.595l39.668-0.007
	l42.73-42.729c6.971,3.183,14.712,4.97,22.875,4.97c30.462,0,55.155-24.694,55.155-55.154C395.526,74.695,370.833,50,340.371,50z
	 M340.371,93.264c-9.488,0-17.181-5.416-17.181-12.096c0-6.681,7.692-12.096,17.181-12.096s17.18,5.415,17.18,12.096
	C357.551,87.848,349.859,93.264,340.371,93.264z M383.332,178.677c0,51.5,0,127.424,0,145.747c0,56.417-69.65,33.814-69.65,33.814
	s21.325,68.011-31.282,68.011c-28.657,0-47.96,0-153.731,0V129.512h130.056c-3.394-11.384-4.418-23.412-2.76-35.752H92.916V462
	h190.027c60.925,0,136.141-79.608,136.141-134.489V137.713C411.931,154.941,399.279,169.321,383.332,178.677z"/>
    <style type="text/css">
		.state0{fill:#BBBBBB;}
	</style>
</svg>
